<?xml version="1.0" encoding="UTF-8"?><svg id="a" xmlns="http://www.w3.org/2000/svg" width="16" height="16" viewBox="0 0 16 16"><defs><style>.b{fill:#1b2d2d;stroke-width:0px;}</style></defs><path class="b" d="m7.01,4.69c2.53,1.04,3.23,1.8,4.27,4.31h.42c1.04-2.53,1.8-3.23,4.31-4.27v-.42C13.48,3.27,12.78,2.51,11.74,0h-.42c-1.04,2.53-1.8,3.23-4.31,4.27v.42Z"/><path class="b" d="m15.58,10.75c-1.24.95-2.79,1.53-4.48,1.53-4.08,0-7.38-3.3-7.38-7.38,0-1.69.58-3.24,1.53-4.48l-.42-.42C1.98,1.34,0,4.23,0,7.6c0,4.64,3.76,8.4,8.4,8.4,3.36,0,6.26-1.98,7.6-4.84l-.42-.42Z"/></svg>