<?xml version="1.0" encoding="UTF-8"?><svg id="a" xmlns="http://www.w3.org/2000/svg" width="16" height="16" viewBox="0 0 16 16"><defs><style>.b{fill:#1b2d2d;stroke-width:0px;}</style></defs><path class="b" d="m0,8.33c4.5,1.85,5.75,3.21,7.6,7.67h.74c1.85-4.5,3.21-5.74,7.67-7.59v-.74C11.5,5.81,10.26,4.46,8.4,0h-.74c-1.85,4.5-3.21,5.74-7.67,7.59v.74Z"/><path class="b" d="m2.19,2.58c1.87,4.49,1.79,6.33-.05,10.79l.52.52c4.49-1.87,6.33-1.79,10.79.05l.52-.52c-1.87-4.49-1.79-6.33.05-10.79l-.52-.52c-4.49,1.87-6.33,1.79-10.79-.05l-.52.52Z"/></svg>