<svg xmlns="http://www.w3.org/2000/svg">
<symbol id="arrow-symbol" viewBox="0 0 16 16"><path d="M-.05,7.57v.74c2.66,1.57,3.36,1.88,4.47,5.69h.62s3.91-2.58,10.92-5.61v-.88C8.95,4.47,5.03,2,5.03,2h-.62C3.33,5.86,2.57,5.97-.05,7.57Z"/></symbol>
<symbol id="logo-symbol" viewBox="0 0 300 300"><path d="m114.38,282c-5.81,0-10.21-3.65-10.49-12.08h19.76c1.87-7.49-3.56-12.7-13.67-12.7-22.19-.47-23.22,31.89-2.06,32.18,8.24,0,13.67-5.24,16.29-11.61l-.91-.41c-2.15,3.28-5.92,4.62-8.92,4.62Zm-4.12-23.93c4.49,0,3.89,7.18,2.95,10.83h-9.27c0-4.31,1.17-10.83,6.32-10.83Z"/><path d="m152.12,247.72c4.03,0,4.59,3.28,4.59,10.21v10.96h-13.58v-10.96c0-6.93.56-10.21,4.59-10.21v-1.02h-22.75v1.02c5.9,0,5.9,3,5.9,10.21v20.23c0,6.93,0,10.21-5.9,10.21v1.02h22.75v-1.02c-4.03,0-4.59-3.28-4.59-10.21v-8.24h13.58v8.24c0,6.93-.56,10.21-4.59,10.21v1.02h22.75v-1.02c-5.9,0-5.9-3.28-5.9-10.21v-20.23c0-7.21,0-10.21,5.9-10.21v-1.02h-22.75v1.02Z"/><path d="m65.32,246.62h-21.82v1.02c5.9,0,5.9,3,5.9,10.21v20.23c0,6.93,0,10.21-5.9,10.21v1.02h22.57c15.64,0,23.13-9.45,23.13-21.34,0-14.05-9.27-21.34-23.88-21.34Zm10.3,21.24c0,15.17-3.65,20.41-9.64,20.23-4.12,0-4.31-1.22-4.31-6.84v-33.61c11.99-.66,14.14,5.42,13.95,20.22Z"/><path d="m265.68,285.56c-2.9,0-3.07-3.75-3.07-6.09v-20.8h6v-1.02h-6v-11.8h-1.02c-.19,2.9-1.4,7.12-2.9,9.08-2.15,1.97-6.93,2.9-11.7,2.72v1.02h4.12v22.86c0,4.59,2.27,7.68,6.93,7.68,6.21-.01,9.72-1.67,12.57-5.21l-.72-.65c-1.14,1.31-2.61,2.21-4.2,2.21Z"/><path d="m212.45,284.32c-.81.68-1.62,1.14-2.47,1.14-2.72,0-2.72-2.72-2.72-4.68v-14.33c0-6.84-7.49-9.18-15.82-9.18-3.93,0-13.39,1.5-13.39,8.61,0,3.37,2.43,5.24,5.62,5.24,2.72,0,5.06-1.69,5.24-5.06-1.22-.56-2.06-2.34-2.06-3.65,0-2.9,1.5-4.78,4.59-4.78,5.62,0,4.68,7.24,4.78,11.36-6.61,4.6-20.13,3.15-20.13,12.61-.19,10.86,17.49,9.87,20.23,1.24.57,5.16,2.72,6.44,6.18,6.44,4.31,0,7.79-1.96,10.5-4.3l-.54-.68Zm-16.23-4.75c0,2.15-1.4,5.42-3.84,5.42-3.09,0-4.12-3-4.12-5.81,0-6.55,3.75-6.28,7.96-9v9.39Z"/><path d="m238.72,257.18c-5.71,0-8.52,4.31-10.11,8.71l.28-9.32-16.57,4.03.09.99c5.06-1.12,5.34.94,5.34,4.96v14.79c0,5.62-.56,6.84-4.78,6.84v1.02h21.16v-1.02c-4.78,0-5.34-1.22-5.34-6.84v-13c1.12-3.93,3.28-8.29,6.18-8.29,1.78,0,2.56.94,2.62,2.61.07,1.87-1.22,3.14-3,3.7.09,3.46,2.53,5.06,5.24,5.06,3.93,0,6.65-3,6.65-6.84,0-4.87-3.75-7.4-7.77-7.4Z"/><path d="m183.3,149.36l-25.12-52.11-25.68,52.11H0v1.17h28.74v31.46h.94c2.06-18.54,11.05-31.46,30.99-31.46v56.84c0,14.42-1.22,21.26-14.05,21.26v1.02h53.47v-1.02c-12.83,0-14.05-6.74-14.05-21.26l-.19-56.84h46.12c-8.43,18.07-18.54,35.21-28.47,34.46v1.02h34.74v-1.02c-18.14-.2-14.1-17.04-5.06-34.46h24.06s2.34,5.15,2.53,5.52c5.15,11.05,15.36,29.31-.28,28.84v1.02h50.28v-1.02c-8.9,0-12.55-6.37-20.32-22.47l-5.71-11.89h38.17c13.58,0,13.58,6.27,13.58,21.16v48.88c0,6.74-1.5,15.1-9.74,15.1-11.33.28-12.64-15.57-4.59-20.06-1.41-17.58-25.66-15.25-25.19,1.4,0,15.64,20.69,19.66,29.87,19.66,25.47,0,35.11-12.64,35.11-32.87v-32.12c0-14.89,0-21.16,12.27-21.16h26.76v-1.17h-116.7Zm-37.67-23.83l11.17,23.83h-23l11.82-23.83Z"/><path d="m161.63,212.71c-6.55-2.67-8.37-4.63-11.09-11.1h-1.07c-2.67,6.55-4.63,8.37-11.1,11.09v1.07c6.55,2.67,8.37,4.63,11.09,11.1h1.07c2.67-6.55,4.63-8.37,11.1-11.09v-1.07Z"/></symbol>
<symbol id="moon-symbol" viewBox="0 0 16 16"><path d="m7.01,4.69c2.53,1.04,3.23,1.8,4.27,4.31h.42c1.04-2.53,1.8-3.23,4.31-4.27v-.42C13.48,3.27,12.78,2.51,11.74,0h-.42c-1.04,2.53-1.8,3.23-4.31,4.27v.42Z"/><path d="m15.58,10.75c-1.24.95-2.79,1.53-4.48,1.53-4.08,0-7.38-3.3-7.38-7.38,0-1.69.58-3.24,1.53-4.48l-.42-.42C1.98,1.34,0,4.23,0,7.6c0,4.64,3.76,8.4,8.4,8.4,3.36,0,6.26-1.98,7.6-4.84l-.42-.42Z"/></symbol>
<symbol id="star-symbol" viewBox="0 0 16 16"><path d="m16,7.64c-4.51-1.84-5.76-3.19-7.63-7.64h-.74c-1.84,4.51-3.19,5.76-7.64,7.62v.74c4.51,1.84,5.76,3.19,7.63,7.64h.74c1.84-4.51,3.19-5.76,7.64-7.62v-.74Z"/></symbol>
<symbol id="sun-symbol" viewBox="0 0 16 16"><path d="m0,8.33c4.5,1.85,5.75,3.21,7.6,7.67h.74c1.85-4.5,3.21-5.74,7.67-7.59v-.74C11.5,5.81,10.26,4.46,8.4,0h-.74c-1.85,4.5-3.21,5.74-7.67,7.59v.74Z"/><path d="m2.19,2.58c1.87,4.49,1.79,6.33-.05,10.79l.52.52c4.49-1.87,6.33-1.79,10.79.05l.52-.52c-1.87-4.49-1.79-6.33.05-10.79l-.52-.52c-4.49,1.87-6.33,1.79-10.79-.05l-.52.52Z"/></symbol>
</svg>